<svg xmlns="http://www.w3.org/2000/svg" fill-rule="evenodd" stroke-miterlimit="1.4142" viewBox="0 0 1566 616" clip-rule="evenodd" stroke-linejoin="round">
  <g transform="translate(-1376.13 -1124.69) scale(.97108)">
    <path fill="#fff" fill-rule="nonzero" d="M2208.78 1579.97c0-12.43-3.54-22.2-10.62-29.33-7.07-7.12-20.28-13.95-39.63-20.46-19.35-6.52-33.55-13.8-42.61-21.84-11.91-10.49-17.87-24.34-17.87-41.54 0-17.01 5.85-30.86 17.56-41.55 11.71-10.69 26.83-16.03 45.36-16.03 18.94 0 34.42 6.21 46.43 18.63 12.02 12.42 18.02 28.41 18.02 47.96h-17.56c0-14.97-4.2-27.06-12.6-36.28-8.4-9.21-19.83-13.82-34.29-13.82-14.05 0-25.12 3.79-33.21 11.38-8.1 7.58-12.15 17.39-12.15 29.4 0 11.2 3.82 20.36 11.46 27.49 7.63 7.13 19.8 13.47 36.5 19.02 16.7 5.54 29.32 11.3 37.88 17.25 8.55 5.96 14.86 12.96 18.93 21 4.08 8.05 6.11 17.52 6.11 28.41 0 17.41-5.88 31.44-17.64 42.08-11.76 10.64-27.31 15.96-46.65 15.96-13.04 0-24.92-2.68-35.67-8.02-10.74-5.35-19.14-13.03-25.2-23.06-6.05-10.03-9.08-21.87-9.08-35.51h17.41c0 15.68 4.73 28 14.2 36.96 9.47 8.96 22.25 13.44 38.34 13.44 14.05 0 25.32-3.77 33.82-11.3 8.51-7.54 12.76-17.62 12.76-30.24zm214-14.67c-1.63 24.95-8.35 43.25-20.16 54.91-11.81 11.66-28.15 17.49-49.02 17.49-21.49 0-38.44-8.12-50.86-24.36-12.42-16.24-18.69-38.31-18.79-66.21v-48.26c0-28 6.34-49.94 19.02-65.83 12.67-15.88 30.01-23.82 52-23.82 20.77 0 36.86 5.95 48.26 17.87 11.41 11.91 17.92 30.19 19.55 54.82h-17.71c-1.63-20.15-6.39-34.56-14.29-43.22-7.89-8.65-19.82-12.98-35.81-12.98-16.8 0-29.88 6.26-39.25 18.79-9.37 12.52-14.05 30.69-14.05 54.52v47.65c0 23.62 4.53 42 13.59 55.14 9.06 13.13 21.84 19.7 38.34 19.7 17.31 0 29.83-4.33 37.57-12.98 7.74-8.66 12.37-23.07 13.9-43.23h17.71zm167.98 7.18h-83.38l-18.94 62.16h-18.18l70.87-222.37h16.19l70.86 222.37h-18.17l-19.25-62.16zm-78.35-16.34h73.31l-36.65-119.28-36.66 119.28zm189.73 62.31h91.63v16.19h-109.2v-222.37h17.57v206.18zm254.68-90.26h-86.3v90.26h99.28v16.19h-116.69v-222.37h115.92v16.5h-98.51V1512h86.3v16.19z"/>
    <clipPath id="a">
      <path d="M1573.42 1391.75l124.71-73.12-124.71-73.12v146.24z"/>
    </clipPath>
    <g clip-path="url(#a)">
      <path fill="#fff" fill-rule="nonzero" d="M1698.13 1245.51v146.24h-124.71v-146.24h124.71z"/>
    </g>
    <path fill="#fff" fill-rule="nonzero" d="M1573.42 1391.75l124.71-73.12-124.71-73.12v146.24z"/>
    <clipPath id="b">
      <path d="M1565.42 1546.86v-141.15l-120.36 70.58 120.36 70.57z"/>
    </clipPath>
    <g clip-path="url(#b)">
      <path fill="#fff" fill-rule="nonzero" d="M1565.42 1405.71v141.15h-120.36v-141.15h120.36z"/>
    </g>
    <path fill="#fff" fill-rule="nonzero" d="M1565.42 1546.86v-141.15l-120.36 70.58 120.36 70.57z"/>
    <clipPath id="c">
      <path d="M1698.13 1476.29l-124.71-73.12v146.23l124.71-73.11z"/>
    </clipPath>
    <g clip-path="url(#c)">
      <path fill="#fff" fill-rule="nonzero" d="M1698.13 1403.17v146.23h-124.71v-146.23h124.71z"/>
    </g>
    <path fill="#fff" fill-rule="nonzero" d="M1698.13 1476.29l-124.71-73.12v146.23l124.71-73.11z"/>
    <clipPath id="d">
      <path d="M1573.42 1560.82v145.33l.77.46 123.94-72.67-124.71-73.12z"/>
    </clipPath>
    <g clip-path="url(#d)">
      <path fill="#fff" fill-rule="nonzero" d="M1698.13 1560.82v145.79h-124.71v-145.79h124.71z"/>
    </g>
    <path fill="#fff" fill-rule="nonzero" d="M1573.42 1560.82v145.33l.77.46 123.94-72.67-124.71-73.12z"/>
    <clipPath id="e">
      <path d="M1701.42 1641.28l-119.37 69.99 119.37 70.92v-140.91z"/>
    </clipPath>
    <g clip-path="url(#e)">
      <path fill="#fff" fill-rule="nonzero" d="M1701.42 1641.28v140.91h-119.37v-140.91h119.37z"/>
    </g>
    <path fill="#fff" fill-rule="nonzero" d="M1701.42 1641.28l-119.37 69.99 119.37 70.92v-140.91z"/>
    <clipPath id="f">
      <path d="M1565.42 1563.37l-116.93 68.56 116.93 69.47v-138.03z"/>
    </clipPath>
    <g clip-path="url(#f)">
      <path fill="#fff" fill-rule="nonzero" d="M1565.42 1563.37v138.03h-116.93v-138.03h116.93z"/>
    </g>
    <path fill="#fff" fill-rule="nonzero" d="M1565.42 1563.37l-116.93 68.56 116.93 69.47v-138.03z"/>
    <clipPath id="g">
      <path d="M1563.69 1397.46l-122.27-71.69v143.38l122.27-71.69z"/>
    </clipPath>
    <g clip-path="url(#g)">
      <path fill="#fff" fill-rule="nonzero" d="M1563.69 1325.77v143.38h-122.27v-143.38h122.27z"/>
    </g>
    <path fill="#fff" fill-rule="nonzero" d="M1563.69 1397.46l-122.27-71.69v143.38l122.27-71.69z"/>
    <clipPath id="h">
      <path d="M1701.42 1311.29v-142.94l-121.09 71.94 121.09 71z"/>
    </clipPath>
    <g clip-path="url(#h)">
      <path fill="#fff" fill-rule="nonzero" d="M1701.42 1168.35v142.94h-121.09v-142.94h121.09z"/>
    </g>
    <path fill="#fff" fill-rule="nonzero" d="M1701.42 1311.29v-142.94l-121.09 71.94 121.09 71z"/>
    <clipPath id="i">
      <path d="M1565.42 1389.2v-140.05l-118.65 70.49 118.65 69.56z"/>
    </clipPath>
    <g clip-path="url(#i)">
      <path fill="#fff" fill-rule="nonzero" d="M1565.42 1249.15v140.05h-118.65v-140.05h118.65z"/>
    </g>
    <path fill="#fff" fill-rule="nonzero" d="M1565.42 1389.2v-140.05l-118.64 70.49 118.64 69.56z"/>
    <clipPath id="j">
      <path d="M1838.42 1391.75l-124.7-73.12 124.7-73.12v146.24z"/>
    </clipPath>
    <g clip-path="url(#j)">
      <path fill="#fff" fill-rule="nonzero" d="M1713.72 1245.51v146.24h124.7v-146.24h-124.7z"/>
    </g>
    <path fill="#fff" fill-rule="nonzero" d="M1838.42 1391.75l-124.7-73.12 124.7-73.12v146.24z"/>
    <clipPath id="k">
      <path d="M1846.42 1546.86v-141.15l120.36 70.58-120.36 70.57z"/>
    </clipPath>
    <g clip-path="url(#k)">
      <path fill="#fff" fill-rule="nonzero" d="M1846.42 1405.71v141.15h120.36v-141.15h-120.36z"/>
    </g>
    <path fill="#fff" fill-rule="nonzero" d="M1846.42 1546.86v-141.15l120.36 70.58-120.36 70.57z"/>
    <clipPath id="l">
      <path d="M1713.72 1476.29l124.7-73.12v146.23l-124.7-73.11z"/>
    </clipPath>
    <g clip-path="url(#l)">
      <path fill="#fff" fill-rule="nonzero" d="M1713.72 1403.17v146.23h124.7v-146.23h-124.7z"/>
    </g>
    <path fill="#fff" fill-rule="nonzero" d="M1713.72 1476.29l124.7-73.12v146.23l-124.7-73.11z"/>
    <clipPath id="m">
      <path d="M1838.42 1560.82v145.33l-.77.46-123.93-72.67 124.7-73.12z"/>
    </clipPath>
    <g clip-path="url(#m)">
      <path fill="#fff" fill-rule="nonzero" d="M1713.72 1560.82v145.79h124.7v-145.79h-124.7z"/>
    </g>
    <path fill="#fff" fill-rule="nonzero" d="M1838.42 1560.82v145.33l-.77.46-123.93-72.67 124.7-73.12z"/>
    <clipPath id="n">
      <path d="M1710.42 1641.28l119.38 69.99-119.38 70.92v-140.91z"/>
    </clipPath>
    <g clip-path="url(#n)">
      <path fill="#fff" fill-rule="nonzero" d="M1710.42 1641.28v140.91h119.38v-140.91h-119.38z"/>
    </g>
    <path fill="#fff" fill-rule="nonzero" d="M1710.42 1641.28l119.38 69.99-119.38 70.92v-140.91z"/>
    <clipPath id="o">
      <path d="M1846.42 1563.37l116.93 68.56-116.93 69.47v-138.03z"/>
    </clipPath>
    <g clip-path="url(#o)">
      <path fill="#fff" fill-rule="nonzero" d="M1846.42 1563.37v138.03h116.93v-138.03h-116.93z"/>
    </g>
    <path fill="#fff" fill-rule="nonzero" d="M1846.42 1563.37l116.93 68.56-116.93 69.47v-138.03zm124-79.94v143.37l-122.26-71.69 122.26-71.68z"/>
    <path fill="#fff" fill-rule="nonzero" d="M1970.42 1483.43v143.37l-122.26-71.69 122.26-71.68z"/>
    <clipPath id="p">
      <path d="M1710.42 1311.29v-142.94l121.1 71.94-121.1 71z"/>
    </clipPath>
    <g clip-path="url(#p)">
      <path fill="#fff" fill-rule="nonzero" d="M1710.42 1168.35v142.94h121.1v-142.94h-121.1z"/>
    </g>
    <path fill="#fff" fill-rule="nonzero" d="M1710.42 1311.29v-142.94l121.1 71.94-121.1 71z"/>
    <clipPath id="q">
      <path d="M1846.42 1389.2v-140.05l118.65 70.49-118.65 69.56z"/>
    </clipPath>
    <g clip-path="url(#q)">
      <path fill="#fff" fill-rule="nonzero" d="M1846.42 1249.15v140.05h118.65v-140.05h-118.65z"/>
    </g>
    <path fill="#fff" fill-rule="nonzero" d="M1846.42 1389.2v-140.05l118.65 70.49-118.65 69.56z"/>
  </g>
</svg>
